<svg xmlns="http://www.w3.org/2000/svg" viewBox="0 0 494.98 95.42"><defs><style>.cls-1{fill:#ec6b4d;}.cls-2{fill:#fdd800;}.cls-3{fill:#42bdd8;}</style></defs><g id="レイヤー_2" data-name="レイヤー 2"><g id="レイヤー_1-2" data-name="レイヤー 1"><path class="cls-1" d="M112.67,67.18H87.46c-.54,0-.87-.7-.87-1.21L96.27,1.31c0-.81.33-1.31.87-1.31h25.21c.47,0,.81.5.81,1.31L113.48,66C113.48,66.48,113.14,67.18,112.67,67.18Zm-4.5,28.24H83.1c-.54,0-.88-.51-.88-1.21l2.29-15.1c.1-.66.71-1.47,1.25-1.47h25c.47,0,.81.5.81,1.31l-2.31,15.26A1.3,1.3,0,0,1,108.17,95.42Z"/><path class="cls-2" d="M321.87,67.18H296.66c-.54,0-.87-.7-.87-1.21l9.67-64.66c0-.81.34-1.31.88-1.31h25.2c.48,0,.81.5.81,1.31L322.68,66C322.68,66.48,322.34,67.18,321.87,67.18Zm-4.5,28.24H292.29c-.54,0-.87-.51-.87-1.21l2.29-15.1c.09-.66.71-1.47,1.25-1.47h25c.47,0,.81.5.81,1.31l-2.31,15.26A1.3,1.3,0,0,1,317.37,95.42Z"/><path class="cls-3" d="M484.5,67.18H459.29c-.54,0-.87-.7-.87-1.21l9.67-64.66c0-.81.34-1.31.88-1.31h25.21c.47,0,.8.5.8,1.31L485.31,66C485.31,66.48,485,67.18,484.5,67.18ZM480,95.42H454.92c-.54,0-.87-.51-.87-1.21l2.29-15.1c.09-.66.71-1.47,1.25-1.47h25c.47,0,.81.5.81,1.31l-2.31,15.26A1.3,1.3,0,0,1,480,95.42Z"/><path class="cls-1" d="M27.7,67.3a1,1,0,0,0,.73,1.21l29.85-.18c.54,0,1,.51.86,1.31L55.47,94a1.28,1.28,0,0,1-1.16,1.21H7.37a1.67,1.67,0,0,1-1.47-.7L.28,84.3a3.79,3.79,0,0,1-.23-2L5,47.2a7.81,7.81,0,0,1,.61-2.31l9-12.93c.4-.5.39-1.51-.29-1.51H.67c-.47,0-.75-.5-.65-1.31L3,7.5c.06-.5.49-1.21,1-1.21H65.41c.54,0,.93.71.87,1.21l-3,21.64a1.33,1.33,0,0,1-1.17,1.31l-18.72.18a1.84,1.84,0,0,0-1.47,1L31,47.24a8.11,8.11,0,0,0-.81,2.21ZM47.62,54.6c-.88,0-2.12-1.31-1.87-3.39L47.22,39c.25-2.08,1.8-3.38,2.68-3.38h8.73c.88,0,1.94,1.3,1.69,3.38L58.86,51.21c-.25,2.08-1.63,3.39-2.51,3.39ZM63.42,39c.25-2.08,1.28-3.38,2.68-3.38h8.74c.87,0,1.94,1.3,1.69,3.38L75.06,51.21c-.25,2.08-1.63,3.39-2.51,3.39H63.82c-1.4,0-2.12-1.31-1.87-3.39Z"/><path class="cls-2" d="M220.38,16.69a4.48,4.48,0,0,1,.39,2.31L210.36,94a1.35,1.35,0,0,1-1.16,1.21H152c-.54,0-.82-.51-.73-1.21l12.1-86.21c.2-1,.65-1.67,1.53-1.67h48.85a1.87,1.87,0,0,1,1.42,1ZM194.52,65.05c.5,0,.86-.46.94-1.11l4.3-32.62c.09-.73-.17-1.19-.66-1.19H187.45c-.5,0-.86.46-.95,1.19L181.86,64c-.08.65.18,1.11.67,1.11Z"/><path class="cls-2" d="M246.75,64.52c-.33,0-1,.8-1,1.3l-1.09,7.89c-.06.51.39,1.21.73,1.21l26.83,0c.54,0,.82.5.72,1.3l-2.84,17.47c-.09.7-.53,1.51-1.06,1.51H228.89a1.94,1.94,0,0,1-1.37-1l-4.14-7.54a4.5,4.5,0,0,1-.4-2.32l7.48-53.72a2.17,2.17,0,0,1,1.36-1.51h40.85a1.52,1.52,0,0,1,1.23,1l4.28,7.56a4.63,4.63,0,0,1,.26,2.31l-3.92,23.31c-.09.7-.49,1.21-1,1.21Zm2.94-19.91a1.58,1.58,0,0,0-1.14,1.44L247.72,52c-.09.77.43,1.33.8,1.33h12.09c.59,0,1-.56,1.12-1.33l1-5.92c.11-.89-.41-1.44-1-1.44Z"/><path class="cls-3" d="M414.36,27.48c-.09.71-.49,1.22-1,1.22H371.12c-.47,0-.75-.51-.66-1.22l2.79-20.12c.06-.51.49-1.22,1-1.22h41.87c.55,0,.8.71.74,1.22ZM368.8,37.64c.1-.82.5-1.33,1-1.33H434.2c.55,0,.82.51.73,1.33l-1.87,15.23c-.08.71-.49,1.22-1,1.22H417.17c-.54,0-1,.81-1,1.32l-3.88,27.82a11.18,11.18,0,0,1-.76,2.33l-7.19,9a2,2,0,0,1-1.44.71H364.34c-.47,0-.75-.51-.66-1.22l3.37-23.53c.06-.51.49-1.22,1-1.22h22.2c.48,0,.88-.51,1-1.32l1.73-12.55c.06-.51-.18-1.32-.66-1.32H367.39c-.48,0-.76-.51-.67-1.22ZM450.68,8.51c.9,0,2.11,1.88,1.95,3.23L451,25.2c-.16,1.35-1.87,3.5-2.77,3.5h-9c-.9,0-1.9-2.15-1.74-3.5l1.65-13.46c.16-1.35,1.66-3.23,2.56-3.23Zm-28.23,3.36c.24-2,1.68-3.36,2.58-3.36h9c.9,0,2.17,1.4,1.93,3.36l-1.64,13.46c-.24,2-1.86,3.37-2.76,3.37h-9c-.9,0-2-1.41-1.75-3.37Z"/></g></g></svg>