<svg xmlns="http://www.w3.org/2000/svg" viewBox="0 0 507.45 507.45"><defs><style>.cls-1{fill:none;}.cls-2{fill:#ec6b4d;}.cls-3{fill:#fdd800;}.cls-4{fill:#00b7d6;}</style></defs><g id="レイヤー_2" data-name="レイヤー 2"><g id="レイヤー_1-2" data-name="レイヤー 1"><rect class="cls-1" width="507.45" height="507.45"/><path class="cls-2" d="M210.77,216.58a6.41,6.41,0,0,0-1-8.86c-17.58-14.66-45.28-24.12-76.44-24.12a147,147,0,0,0-27.73,2.59,2.34,2.34,0,0,0,.06,4.61c38.8,6.41,67.38,28.26,67.38,54.24s-28.58,47.83-67.38,54.23a2.34,2.34,0,0,0-.06,4.61,147,147,0,0,0,27.73,2.6c28.07,0,53.32-7.68,70.91-19.91a6.44,6.44,0,0,0,2-8.44,55.7,55.7,0,0,1,4.53-61.55Z"/><path class="cls-2" d="M83.14,208.79c-15.91,0-30.08,5.34-39.28,13.67-6.85,6.19-11,14-11,22.58s4.1,16.38,11,22.57c9.2,8.33,23.37,13.67,39.28,13.67,27.74,0,50.23-16.23,50.23-36.24S110.88,208.79,83.14,208.79Z"/><path class="cls-3" d="M247.07,306.44a6.41,6.41,0,0,0-7.19,5.25C236,334.25,241.63,363,257.21,390a147.21,147.21,0,0,0,16.11,22.72,2.34,2.34,0,0,0,4-2.36c-13.85-36.81-9.21-72.48,13.28-85.47s55.71.83,80.66,31.23a2.34,2.34,0,0,0,4-2.25,147.58,147.58,0,0,0-11.62-25.31c-14-24.31-33.31-42.34-52.7-51.45a6.42,6.42,0,0,0-8.29,2.51,55.64,55.64,0,0,1-55.57,26.86Z"/><path class="cls-3" d="M304.14,420.86c8,13.78,19.67,23.38,31.48,27.19,8.79,2.83,17.63,2.46,25-1.81s12.14-11.74,14.08-20.77c2.61-12.13.15-27.08-7.81-40.85-13.87-24-39.17-35.39-56.5-25.38S290.27,396.84,304.14,420.86Z"/><path class="cls-4" d="M306,229.47a6.4,6.4,0,0,0,8.14,3.6c21.5-7.9,43.54-27.15,59.12-54.14a147.32,147.32,0,0,0,11.62-25.32,2.34,2.34,0,0,0-4-2.24c-24.95,30.4-58.17,44.22-80.66,31.23S273,133.94,286.89,97.13a2.34,2.34,0,0,0-3.95-2.36,146.57,146.57,0,0,0-16.12,22.72c-14,24.31-20,50-18.21,71.36a6.43,6.43,0,0,0,6.32,5.92A55.7,55.7,0,0,1,306,229.47Z"/><path class="cls-4" d="M376.54,122.83c7.95-13.77,10.41-28.72,7.8-40.85-1.94-9-6.68-16.5-14.08-20.77s-16.24-4.64-25-1.81c-11.81,3.81-23.52,13.41-31.48,27.19-13.87,24-11.06,51.61,6.28,61.62S362.66,146.86,376.54,122.83Z"/></g></g></svg>