<svg xmlns="http://www.w3.org/2000/svg" viewBox="0 0 352.43 392.29"><defs><style>.cls-1{fill:#ec6b4d;}.cls-2{fill:#fdd800;}.cls-3{fill:#00b7d6;}</style></defs><g id="レイヤー_2" data-name="レイヤー 2"><g id="レイヤー_1-2" data-name="レイヤー 1"><path class="cls-1" d="M177.86,159a6.41,6.41,0,0,0-1-8.86C159.32,135.48,131.62,126,100.46,126a147.79,147.79,0,0,0-27.73,2.59,2.34,2.34,0,0,0,.06,4.61c38.8,6.41,67.38,28.26,67.38,54.24s-28.58,47.83-67.38,54.23a2.34,2.34,0,0,0-.06,4.61,147,147,0,0,0,27.73,2.6c28.07,0,53.32-7.68,70.91-19.91a6.43,6.43,0,0,0,2-8.44A55.7,55.7,0,0,1,177.86,159Z"/><path class="cls-1" d="M50.23,151.21c-15.91,0-30.08,5.34-39.28,13.67C4.1,171.07,0,178.92,0,187.46S4.1,203.84,11,210c9.2,8.33,23.37,13.67,39.28,13.67,27.74,0,50.23-16.22,50.23-36.24S78,151.21,50.23,151.21Z"/><path class="cls-2" d="M214.16,248.86a6.41,6.41,0,0,0-7.19,5.25c-3.91,22.57,1.75,51.28,17.33,78.27a147.21,147.21,0,0,0,16.11,22.72,2.34,2.34,0,0,0,4-2.36c-13.85-36.81-9.21-72.48,13.28-85.47s55.71.83,80.66,31.23a2.34,2.34,0,0,0,4-2.24,147.32,147.32,0,0,0-11.62-25.32c-14-24.3-33.31-42.34-52.7-51.45a6.42,6.42,0,0,0-8.29,2.51,55.64,55.64,0,0,1-55.57,26.86Z"/><path class="cls-2" d="M271.23,363.28c8,13.78,19.67,23.38,31.48,27.19,8.79,2.83,17.63,2.46,25-1.81s12.14-11.74,14.08-20.77c2.61-12.13.15-27.08-7.81-40.85-13.87-24-39.17-35.39-56.5-25.38S257.36,339.26,271.23,363.28Z"/><path class="cls-3" d="M273.07,171.89a6.4,6.4,0,0,0,8.14,3.6c21.5-7.9,43.54-27.15,59.12-54.14A147.58,147.58,0,0,0,352,96a2.34,2.34,0,0,0-4-2.25C323,124.19,289.76,138,267.27,125S240.13,76.36,254,39.55A2.34,2.34,0,0,0,250,37.19a146.57,146.57,0,0,0-16.12,22.72c-14,24.31-20,50-18.21,71.36a6.43,6.43,0,0,0,6.32,5.92,55.7,55.7,0,0,1,51,34.7Z"/><path class="cls-3" d="M343.63,65.25c7.95-13.77,10.41-28.72,7.8-40.85-1.94-9-6.68-16.5-14.08-20.77s-16.24-4.64-25-1.81C300.51,5.63,288.8,15.23,280.85,29,267,53,269.78,80.62,287.12,90.63S329.75,89.28,343.63,65.25Z"/></g></g></svg>